<?xml version="1.0" encoding="UTF-8"?>
<!DOCTYPE svg PUBLIC "-//W3C//DTD SVG 1.1//EN" "http://www.w3.org/Graphics/SVG/1.1/DTD/svg11.dtd">
<svg xmlns="http://www.w3.org/2000/svg" version="1.1" width="500px" height="500px" style="shape-rendering:geometricPrecision; text-rendering:geometricPrecision; image-rendering:optimizeQuality; fill-rule:evenodd; clip-rule:evenodd" xmlns:xlink="http://www.w3.org/1999/xlink">
<g><path style="opacity:1" fill="#daab15" d="M 136.5,164.5 C 136.963,167.482 137.296,170.482 137.5,173.5C 136.657,175.173 135.324,176.34 133.5,177C 127.833,177.667 122.167,177.667 116.5,177C 112.788,174.487 111.622,170.987 113,166.5C 114.214,164.951 115.714,163.785 117.5,163C 124.041,161.97 130.374,162.47 136.5,164.5 Z"/></g>
<g><path style="opacity:0.804" fill="#88701e" d="M 136.5,164.5 C 139.685,167.323 140.019,170.323 137.5,173.5C 137.296,170.482 136.963,167.482 136.5,164.5 Z"/></g>
<g><path style="opacity:0.612" fill="#846e23" d="M 250.5,172.5 C 242.14,172.169 233.807,172.502 225.5,173.5C 233.138,174.497 240.804,174.831 248.5,174.5C 248.5,174.833 248.5,175.167 248.5,175.5C 239.996,175.967 231.663,175.467 223.5,174C 223.957,173.586 224.291,173.086 224.5,172.5C 233.325,171.179 241.991,171.179 250.5,172.5 Z"/></g>
<g><path style="opacity:1" fill="#dfba27" d="M 250.5,172.5 C 250.833,172.5 251.167,172.5 251.5,172.5C 250.71,173.401 249.71,174.068 248.5,174.5C 240.804,174.831 233.138,174.497 225.5,173.5C 233.807,172.502 242.14,172.169 250.5,172.5 Z"/></g>
<g><path style="opacity:1" fill="#cdab2d" d="M 103.5,174.5 C 93.4944,174.666 83.4944,174.5 73.5,174C 74.056,173.617 74.3893,173.117 74.5,172.5C 84.0893,171.361 93.756,171.194 103.5,172C 104.774,172.977 104.774,173.811 103.5,174.5 Z"/></g>
<g><path style="opacity:0.455" fill="#725a10" d="M 74.5,172.5 C 74.3893,173.117 74.056,173.617 73.5,174C 83.4944,174.5 93.4944,174.666 103.5,174.5C 94.2965,175.217 84.9632,175.884 75.5,176.5C 74.8333,176.5 74.1667,176.5 73.5,176.5C 72.791,175.596 71.791,175.263 70.5,175.5C 71.2623,173.738 72.5956,172.738 74.5,172.5 Z"/></g>
<g><path style="opacity:0.004" fill="#2c2007" d="M 73.5,176.5 C 74.1667,176.5 74.8333,176.5 75.5,176.5C 74.5,178.167 73.1667,179.5 71.5,180.5C 71.7329,178.938 72.3995,177.605 73.5,176.5 Z"/></g>
<g><path style="opacity:1" fill="#b68d25" d="M 251.5,172.5 C 254.833,173.833 257.167,176.167 258.5,179.5C 257.348,178.375 256.348,178.375 255.5,179.5C 255.167,179.5 254.833,179.5 254.5,179.5C 252.772,177.774 250.772,176.441 248.5,175.5C 248.5,175.167 248.5,174.833 248.5,174.5C 249.71,174.068 250.71,173.401 251.5,172.5 Z"/></g>
<g><path style="opacity:0.178" fill="#462f09" d="M 254.5,179.5 C 254.833,179.5 255.167,179.5 255.5,179.5C 256.494,220.094 256.827,260.761 256.5,301.5C 256.167,301.5 255.833,301.5 255.5,301.5C 255.822,260.791 255.489,220.124 254.5,179.5 Z"/></g>
<g><path style="opacity:1" fill="#bd8a29" d="M 176.5,186.5 C 177.5,186.5 178.5,186.5 179.5,186.5C 179.5,187.167 179.5,187.833 179.5,188.5C 173.174,190.476 172.841,193.142 178.5,196.5C 174.193,195.673 169.86,195.007 165.5,194.5C 165.5,193.833 165.5,193.167 165.5,192.5C 166.461,190.735 166.795,188.735 166.5,186.5C 169.833,186.5 173.167,186.5 176.5,186.5 Z"/></g>
<g><path style="opacity:1" fill="#cbb367" d="M 176.5,186.5 C 173.167,186.5 169.833,186.5 166.5,186.5C 166.795,188.735 166.461,190.735 165.5,192.5C 165.5,191.167 165.5,189.833 165.5,188.5C 163.833,188.5 162.167,188.5 160.5,188.5C 160.675,190.621 160.341,192.621 159.5,194.5C 157.167,194.5 154.833,194.5 152.5,194.5C 151.127,194.657 149.793,194.49 148.5,194C 149.833,192.333 149.833,190.667 148.5,189C 145.843,188.825 143.176,188.992 140.5,189.5C 152.193,184.237 164.193,183.237 176.5,186.5 Z"/></g>
<g><path style="opacity:1" fill="#d4ac2a" d="M 258.5,179.5 C 259.404,180.209 259.737,181.209 259.5,182.5C 259.832,222.004 259.499,261.337 258.5,300.5C 257.732,301.263 257.232,302.263 257,303.5C 256.536,302.906 256.369,302.239 256.5,301.5C 256.827,260.761 256.494,220.094 255.5,179.5C 256.348,178.375 257.348,178.375 258.5,179.5 Z"/></g>
<g><path style="opacity:1" fill="#f3e69d" d="M 152.5,194.5 C 152.5,194.833 152.5,195.167 152.5,195.5C 151.209,195.263 150.209,195.596 149.5,196.5C 142.978,198.096 136.978,200.763 131.5,204.5C 132.036,201.302 131.369,198.635 129.5,196.5C 129.833,195.833 130.167,195.167 130.5,194.5C 133.357,191.999 136.691,190.332 140.5,189.5C 143.176,188.992 145.843,188.825 148.5,189C 149.833,190.667 149.833,192.333 148.5,194C 149.793,194.49 151.127,194.657 152.5,194.5 Z"/></g>
<g><path style="opacity:1" fill="#c76b08" d="M 179.5,188.5 C 182.598,189.216 185.598,190.216 188.5,191.5C 188.577,192.75 189.244,193.583 190.5,194C 190.043,194.414 189.709,194.914 189.5,195.5C 187.116,196.011 185.116,197.011 183.5,198.5C 181.597,198.204 179.93,197.537 178.5,196.5C 172.841,193.142 173.174,190.476 179.5,188.5 Z"/></g>
<g><path style="opacity:0.769" fill="#c5a866" d="M 179.5,186.5 C 187.261,188.879 194.261,192.545 200.5,197.5C 198.216,197.025 196.216,196.025 194.5,194.5C 192.5,193.5 190.5,192.5 188.5,191.5C 185.598,190.216 182.598,189.216 179.5,188.5C 179.5,187.833 179.5,187.167 179.5,186.5 Z"/></g>
<g><path style="opacity:1" fill="#a5926e" d="M 165.5,192.5 C 165.5,193.167 165.5,193.833 165.5,194.5C 163.5,194.5 161.5,194.5 159.5,194.5C 160.341,192.621 160.675,190.621 160.5,188.5C 162.167,188.5 163.833,188.5 165.5,188.5C 165.5,189.833 165.5,191.167 165.5,192.5 Z"/></g>
<g><path style="opacity:1" fill="#c89015" d="M 188.5,191.5 C 190.5,192.5 192.5,193.5 194.5,194.5C 194.92,196.094 195.586,197.594 196.5,199C 196.301,201.448 195.301,203.281 193.5,204.5C 190.386,202.035 187.053,200.035 183.5,198.5C 185.116,197.011 187.116,196.011 189.5,195.5C 189.709,194.914 190.043,194.414 190.5,194C 189.244,193.583 188.577,192.75 188.5,191.5 Z"/></g>
<g><path style="opacity:0.127" fill="#3f2e00" d="M 259.5,182.5 C 260.665,221.998 260.831,261.665 260,301.5C 259.768,302.737 259.268,303.737 258.5,304.5C 258.5,303.167 258.5,301.833 258.5,300.5C 259.499,261.337 259.832,222.004 259.5,182.5 Z"/></g>
<g><path style="opacity:0.443" fill="#624c0b" d="M 71.5,180.5 C 70.3508,220.471 70.1841,260.471 71,300.5C 72.0945,302.078 72.9278,303.745 73.5,305.5C 68.9652,303.797 68.2986,304.797 71.5,308.5C 69.4689,307.461 68.1355,305.795 67.5,303.5C 69.329,263.179 70.1623,222.512 70,181.5C 70.3826,180.944 70.8826,180.611 71.5,180.5 Z"/></g>
<g><path style="opacity:1" fill="#a5762b" d="M 148.5,199.5 C 148.666,203.373 147.666,204.04 145.5,201.5C 145.5,200.5 145.5,199.5 145.5,198.5C 146.791,198.263 147.791,198.596 148.5,199.5 Z"/></g>
<g><path style="opacity:1" fill="#dbbe4b" d="M 194.5,194.5 C 196.216,196.025 198.216,197.025 200.5,197.5C 201.59,199.437 202.924,201.27 204.5,203C 203.263,203.232 202.263,203.732 201.5,204.5C 201.167,205.167 200.833,205.833 200.5,206.5C 199.609,207.11 198.609,207.443 197.5,207.5C 196.609,206.89 195.609,206.557 194.5,206.5C 194.167,205.833 193.833,205.167 193.5,204.5C 195.301,203.281 196.301,201.448 196.5,199C 195.586,197.594 194.92,196.094 194.5,194.5 Z"/></g>
<g><path style="opacity:1" fill="#f2ca2f" d="M 129.5,196.5 C 131.369,198.635 132.036,201.302 131.5,204.5C 131.167,205.5 130.5,206.167 129.5,206.5C 124.818,206.125 123.484,203.792 125.5,199.5C 127.007,198.611 128.34,197.611 129.5,196.5 Z"/></g>
<g><path style="opacity:1" fill="#a38747" d="M 144.5,203.5 C 144.5,204.833 143.833,205.5 142.5,205.5C 141.751,204.469 141.085,203.302 140.5,202C 142.704,199.931 144.037,200.431 144.5,203.5 Z"/></g>
<g><path style="opacity:1" fill="#5c3a16" d="M 149.5,196.5 C 150.209,195.596 151.209,195.263 152.5,195.5C 153.369,197.717 153.702,200.05 153.5,202.5C 152.178,202.67 151.011,202.337 150,201.5C 149.517,202.448 149.351,203.448 149.5,204.5C 149.5,204.833 149.5,205.167 149.5,205.5C 147.297,205.604 145.297,206.27 143.5,207.5C 143.167,206.833 142.833,206.167 142.5,205.5C 143.833,205.5 144.5,204.833 144.5,203.5C 145.338,203.158 145.672,202.492 145.5,201.5C 147.666,204.04 148.666,203.373 148.5,199.5C 149.309,198.531 150.309,197.698 151.5,197C 150.906,196.536 150.239,196.369 149.5,196.5 Z"/></g>
<g><path style="opacity:0.874" fill="#7f7b21" d="M 290.5,212.5 C 289.833,212.5 289.5,212.167 289.5,211.5C 289.556,208.439 288.222,206.272 285.5,205C 281.179,204.501 276.846,204.334 272.5,204.5C 271.178,207.768 270.511,211.435 270.5,215.5C 270.517,219.416 270.85,223.25 271.5,227C 270.906,227.464 270.239,227.631 269.5,227.5C 269.5,219.167 269.5,210.833 269.5,202.5C 275.577,202.196 281.577,202.696 287.5,204C 290.215,206.525 291.215,209.358 290.5,212.5 Z"/></g>
<g><path style="opacity:0.818" fill="#69651d" d="M 330.5,215.5 C 330.783,216.289 331.283,216.956 332,217.5C 332.499,212.845 332.666,208.179 332.5,203.5C 334.167,202.167 335.833,202.167 337.5,203.5C 336.833,203.5 336.5,203.833 336.5,204.5C 335.5,204.5 334.5,204.5 333.5,204.5C 333.828,209.875 333.495,215.208 332.5,220.5C 329.17,215.656 326.003,210.656 323,205.5C 321.989,204.663 320.822,204.33 319.5,204.5C 319.169,211.863 319.503,219.197 320.5,226.5C 321.167,220.833 321.833,215.167 322.5,209.5C 325.919,214.668 329.085,220.002 332,225.5C 333.49,226.728 334.99,226.728 336.5,225.5C 336.328,226.492 336.662,227.158 337.5,227.5C 335.636,228.793 333.636,228.793 331.5,227.5C 329.198,223.367 326.698,219.367 324,215.5C 323.667,219.5 323.333,223.5 323,227.5C 321,228.833 319,228.833 317,227.5C 316.185,219.254 316.352,211.088 317.5,203C 319.5,202.333 321.5,202.333 323.5,203C 326.226,206.951 328.559,211.118 330.5,215.5 Z"/></g>
<g><path style="opacity:0.427" fill="#4c4914" d="M 332.5,203.5 C 332.666,208.179 332.499,212.845 332,217.5C 331.283,216.956 330.783,216.289 330.5,215.5C 331.167,211.5 331.833,207.5 332.5,203.5 Z"/></g>
<g><path style="opacity:0.577" fill="#3c3a13" d="M 272.5,204.5 C 272.011,211.173 271.844,217.84 272,224.5C 272.333,224.833 272.667,225.167 273,225.5C 273.198,223.618 273.698,221.952 274.5,220.5C 274.198,223.059 274.532,225.393 275.5,227.5C 273.5,228.833 271.5,228.833 269.5,227.5C 270.239,227.631 270.906,227.464 271.5,227C 270.85,223.25 270.517,219.416 270.5,215.5C 270.511,211.435 271.178,207.768 272.5,204.5 Z"/></g>
<g><path style="opacity:1" fill="#c2bc33" d="M 337.5,203.5 C 337.58,211.71 337.58,219.71 337.5,227.5C 336.662,227.158 336.328,226.492 336.5,225.5C 336.5,218.5 336.5,211.5 336.5,204.5C 336.5,203.833 336.833,203.5 337.5,203.5 Z"/></g>
<g><path style="opacity:0.871" fill="#858124" d="M 373.5,228.5 C 375.833,227.833 378.167,227.167 380.5,226.5C 384.257,225.233 386.424,222.566 387,218.5C 388.396,209.934 384.896,204.934 376.5,203.5C 373.748,203.714 371.414,204.714 369.5,206.5C 368.833,206.5 368.167,206.5 367.5,206.5C 368.453,204.39 370.119,203.223 372.5,203C 381.137,200.898 386.637,204.064 389,212.5C 389.74,223.593 384.573,228.926 373.5,228.5 Z"/></g>
<g><path style="opacity:1" fill="#352512" d="M 152.5,194.5 C 154.833,194.5 157.167,194.5 159.5,194.5C 161.5,194.5 163.5,194.5 165.5,194.5C 169.86,195.007 174.193,195.673 178.5,196.5C 179.93,197.537 181.597,198.204 183.5,198.5C 187.053,200.035 190.386,202.035 193.5,204.5C 193.833,205.167 194.167,205.833 194.5,206.5C 195.609,206.557 196.609,206.89 197.5,207.5C 205.16,215.159 210.494,224.159 213.5,234.5C 214.021,238.481 214.354,242.481 214.5,246.5C 214.5,247.833 214.5,249.167 214.5,250.5C 213.566,251.568 213.232,252.901 213.5,254.5C 213.167,254.5 212.833,254.5 212.5,254.5C 212.715,252.821 212.048,251.821 210.5,251.5C 211.167,250.833 211.833,250.167 212.5,249.5C 212.5,248.5 212.5,247.5 212.5,246.5C 210.5,246.5 208.5,246.5 206.5,246.5C 205.539,244.735 205.205,242.735 205.5,240.5C 207.833,240.5 210.167,240.5 212.5,240.5C 212.435,237.572 211.768,234.905 210.5,232.5C 209.833,231.833 209.167,231.167 208.5,230.5C 209.404,229.791 209.737,228.791 209.5,227.5C 208.833,226.833 208.167,226.167 207.5,225.5C 207.737,224.209 207.404,223.209 206.5,222.5C 206.167,221.833 205.833,221.167 205.5,220.5C 205.189,219.522 204.522,218.855 203.5,218.5C 202.14,219.18 200.807,219.847 199.5,220.5C 198.833,220.833 198.167,221.167 197.5,221.5C 195.823,219.46 194.156,217.46 192.5,215.5C 190.525,213.863 188.525,212.196 186.5,210.5C 185.395,209.4 184.062,208.733 182.5,208.5C 182.158,207.662 181.492,207.328 180.5,207.5C 179.791,206.596 178.791,206.263 177.5,206.5C 174.854,204.747 171.854,203.747 168.5,203.5C 168.167,203.5 167.833,203.5 167.5,203.5C 164.713,202.523 161.713,202.19 158.5,202.5C 158.5,200.5 158.5,198.5 158.5,196.5C 157.5,196.5 156.5,196.5 155.5,196.5C 155.298,198.95 155.631,201.283 156.5,203.5C 154.901,203.232 153.568,203.566 152.5,204.5C 151.5,204.5 150.5,204.5 149.5,204.5C 149.351,203.448 149.517,202.448 150,201.5C 151.011,202.337 152.178,202.67 153.5,202.5C 153.702,200.05 153.369,197.717 152.5,195.5C 152.5,195.167 152.5,194.833 152.5,194.5 Z"/></g>
<g><path style="opacity:1" fill="#d4c78d" d="M 183.5,201.5 C 188.098,202.322 188.264,204.322 184,207.5C 183.308,206.975 182.808,206.308 182.5,205.5C 183.246,204.264 183.579,202.93 183.5,201.5 Z"/></g>
<g><path style="opacity:1" fill="#cec083" d="M 179.5,199.5 C 180.5,199.5 181.5,199.5 182.5,199.5C 182.496,201.842 181.663,203.842 180,205.5C 178.2,203.635 178.034,201.635 179.5,199.5 Z"/></g>
<g><path style="opacity:1" fill="#774c15" d="M 167.5,203.5 C 163.833,203.5 160.167,203.5 156.5,203.5C 155.631,201.283 155.298,198.95 155.5,196.5C 156.5,196.5 157.5,196.5 158.5,196.5C 158.5,198.5 158.5,200.5 158.5,202.5C 161.713,202.19 164.713,202.523 167.5,203.5 Z"/></g>
<g><path style="opacity:1" fill="#c9b569" d="M 174.5,197.5 C 175.5,197.5 176.5,197.5 177.5,197.5C 175.962,205.333 174.962,205.333 174.5,197.5 Z"/></g>
<g><path style="opacity:1" fill="#a68a40" d="M 169.5,196.5 C 170.5,196.5 171.5,196.5 172.5,196.5C 172.5,198.5 172.5,200.5 172.5,202.5C 171.5,202.5 170.5,202.5 169.5,202.5C 169.5,200.5 169.5,198.5 169.5,196.5 Z"/></g>
<g><path style="opacity:1" fill="#ac8832" d="M 164.5,196.5 C 165.5,196.5 166.5,196.5 167.5,196.5C 167.5,198.167 167.5,199.833 167.5,201.5C 166.5,201.5 165.5,201.5 164.5,201.5C 164.5,199.833 164.5,198.167 164.5,196.5 Z"/></g>
<g><path style="opacity:1" fill="#835623" d="M 159.5,195.5 C 160.833,195.5 162.167,195.5 163.5,195.5C 164.401,199.241 163.068,201.241 159.5,201.5C 159.5,199.5 159.5,197.5 159.5,195.5 Z"/></g>
<g><path style="opacity:1" fill="#938d76" d="M 201.5,204.5 C 204.91,204.384 206.244,206.05 205.5,209.5C 203.833,209.5 202.167,209.5 200.5,209.5C 200.5,208.5 200.5,207.5 200.5,206.5C 200.833,205.833 201.167,205.167 201.5,204.5 Z"/></g>
<g><path style="opacity:0.976" fill="#b6853b" d="M 130.5,194.5 C 130.167,195.167 129.833,195.833 129.5,196.5C 128.34,197.611 127.007,198.611 125.5,199.5C 123.484,203.792 124.818,206.125 129.5,206.5C 128.167,208.5 126.5,210.167 124.5,211.5C 121.241,210.927 119.408,208.927 119,205.5C 115.168,209.476 112.001,213.81 109.5,218.5C 109.167,218.5 108.833,218.5 108.5,218.5C 109.045,216.407 109.878,214.407 111,212.5C 113.667,209.167 116.333,205.833 119,202.5C 122.456,199.198 126.289,196.531 130.5,194.5 Z"/></g>
<g><path style="opacity:1" fill="#d9cd91" d="M 188.5,204.5 C 192.079,204.766 192.413,206.099 189.5,208.5C 188.675,209.386 187.675,209.719 186.5,209.5C 186.392,207.486 187.058,205.82 188.5,204.5 Z"/></g>
<g><path style="opacity:0.741" fill="#8d8925" d="M 274.5,206.5 C 277.518,206.335 280.518,206.502 283.5,207C 285.648,209.075 285.982,211.408 284.5,214C 281.183,214.498 277.85,214.665 274.5,214.5C 274.5,211.833 274.5,209.167 274.5,206.5 Z M 276.5,208.5 C 278.857,208.337 281.19,208.503 283.5,209C 284.925,210.714 284.592,212.047 282.5,213C 280.527,213.495 278.527,213.662 276.5,213.5C 276.5,211.833 276.5,210.167 276.5,208.5 Z"/></g>
<g><path style="opacity:0.902" fill="#7c7821" d="M 373.5,206.5 C 377.192,205.971 380.358,206.971 383,209.5C 383.667,213.5 383.667,217.5 383,221.5C 377.785,226.019 373.451,225.353 370,219.5C 368.668,214.415 369.835,210.081 373.5,206.5 Z M 373.5,208.5 C 380.745,207.963 383.578,211.296 382,218.5C 379.42,223.817 376.087,224.483 372,220.5C 371.081,216.269 371.581,212.269 373.5,208.5 Z"/></g>
<g><path style="opacity:1" fill="#d6d6a4" d="M 194.5,206.5 C 195.521,209.227 194.521,211.227 191.5,212.5C 190.607,209.688 191.607,207.688 194.5,206.5 Z"/></g>
<g><path style="opacity:0.549" fill="#565216" d="M 411.5,226.5 C 410.833,220.5 410.167,214.5 409.5,208.5C 409.369,207.624 409.702,206.957 410.5,206.5C 411.497,213.134 411.83,219.8 411.5,226.5 Z"/></g>
<g><path style="opacity:0.048" fill="#000000" d="M 362.5,210.5 C 363.167,211.5 363.833,212.5 364.5,213.5C 364.5,214.833 364.5,216.167 364.5,217.5C 363.833,218.167 363.167,218.833 362.5,219.5C 362.5,216.5 362.5,213.5 362.5,210.5 Z"/></g>
<g><path style="opacity:1" fill="#cc7a03" d="M 182.5,208.5 C 184.062,208.733 185.395,209.4 186.5,210.5C 186.769,213.597 187.935,216.263 190,218.5C 189.865,225.905 190.698,232.905 192.5,239.5C 191.302,242.426 190.302,245.426 189.5,248.5C 189.125,244.558 188.125,240.891 186.5,237.5C 185.817,235.824 184.483,235.157 182.5,235.5C 182.5,226.5 182.5,217.5 182.5,208.5 Z"/></g>
<g><path style="opacity:1" fill="#888324" d="M 415.5,203.5 C 414.833,203.5 414.5,203.833 414.5,204.5C 412.533,204.261 410.699,204.594 409,205.5C 407.128,211.449 405.461,217.449 404,223.5C 401.858,217.651 400.025,211.651 398.5,205.5C 396.955,204.548 395.288,204.215 393.5,204.5C 392.833,212.167 392.167,219.833 391.5,227.5C 391.5,219.167 391.5,210.833 391.5,202.5C 394.448,202.223 397.281,202.556 400,203.5C 400.955,207.902 402.121,212.236 403.5,216.5C 404.987,212.219 406.321,207.885 407.5,203.5C 410.309,202.2 412.976,202.2 415.5,203.5 Z"/></g>
<g><path style="opacity:1" fill="#e1daa6" d="M 196.5,210.5 C 197.756,210.461 198.756,210.961 199.5,212C 198.315,213.353 196.981,214.52 195.5,215.5C 194.692,215.192 194.025,214.692 193.5,214C 194.71,212.961 195.71,211.794 196.5,210.5 Z"/></g>
<g><path style="opacity:0.933" fill="#5e5a1b" d="M 393.5,204.5 C 393.169,211.863 393.503,219.197 394.5,226.5C 395.035,219.689 395.868,213.023 397,206.5C 398.667,212.833 400.333,219.167 402,225.5C 403.011,226.337 404.178,226.67 405.5,226.5C 406.213,222.313 407.213,218.313 408.5,214.5C 409.341,216.379 409.675,218.379 409.5,220.5C 408.883,220.611 408.383,220.944 408,221.5C 408.818,227.857 406.318,229.857 400.5,227.5C 398.636,219.679 397.636,220.012 397.5,228.5C 395.265,228.795 393.265,228.461 391.5,227.5C 392.167,219.833 392.833,212.167 393.5,204.5 Z"/></g>
<g><path style="opacity:1" fill="#cc6e0d" d="M 124.5,211.5 C 120.721,216.063 117.721,221.063 115.5,226.5C 115.167,226.5 114.833,226.5 114.5,226.5C 111.818,224.47 110.151,221.803 109.5,218.5C 112.001,213.81 115.168,209.476 119,205.5C 119.408,208.927 121.241,210.927 124.5,211.5 Z"/></g>
<g><path style="opacity:1" fill="#3c2c18" d="M 149.5,196.5 C 150.239,196.369 150.906,196.536 151.5,197C 150.309,197.698 149.309,198.531 148.5,199.5C 147.791,198.596 146.791,198.263 145.5,198.5C 145.5,199.5 145.5,200.5 145.5,201.5C 145.672,202.492 145.338,203.158 144.5,203.5C 144.037,200.431 142.704,199.931 140.5,202C 141.085,203.302 141.751,204.469 142.5,205.5C 142.833,206.167 143.167,206.833 143.5,207.5C 138.91,209.762 134.91,212.762 131.5,216.5C 130.833,216.833 130.167,217.167 129.5,217.5C 128.89,218.391 128.557,219.391 128.5,220.5C 127.599,221.29 126.932,222.29 126.5,223.5C 124.326,226.515 122.659,229.849 121.5,233.5C 121.167,233.5 120.833,233.5 120.5,233.5C 120.5,232.833 120.5,232.167 120.5,231.5C 120.5,230.833 120.5,230.167 120.5,229.5C 121.705,227.59 121.038,226.257 118.5,225.5C 116.596,226.257 116.263,227.257 117.5,228.5C 117.44,229.043 117.107,229.376 116.5,229.5C 115.614,228.675 115.281,227.675 115.5,226.5C 117.721,221.063 120.721,216.063 124.5,211.5C 126.5,210.167 128.167,208.5 129.5,206.5C 130.5,206.167 131.167,205.5 131.5,204.5C 136.978,200.763 142.978,198.096 149.5,196.5 Z"/></g>
<g><path style="opacity:1" fill="#cbb988" d="M 129.5,217.5 C 126.476,217.636 124.976,216.302 125,213.5C 128.022,212.669 129.522,214.002 129.5,217.5 Z"/></g>
<g><path style="opacity:1" fill="#c4b288" d="M 128.5,209.5 C 131.5,209.167 132.833,210.5 132.5,213.5C 129.5,213.833 128.167,212.5 128.5,209.5 Z"/></g>
<g><path style="opacity:1" fill="#b8a560" d="M 132.5,205.5 C 134.701,205.858 136.035,207.192 136.5,209.5C 134.182,210.834 132.515,210.168 131.5,207.5C 131.863,206.817 132.196,206.15 132.5,205.5 Z"/></g>
<g><path style="opacity:1" fill="#b0935a" d="M 137.5,202.5 C 140.454,204.314 140.788,206.314 138.5,208.5C 136.454,206.719 136.12,204.719 137.5,202.5 Z"/></g>
<g><path style="opacity:1" fill="#d6b457" d="M 152.5,204.5 C 153.568,203.566 154.901,203.232 156.5,203.5C 160.167,203.5 163.833,203.5 167.5,203.5C 167.833,203.5 168.167,203.5 168.5,203.5C 167.081,204.451 165.415,204.784 163.5,204.5C 164.401,214.81 165.067,225.143 165.5,235.5C 163.5,235.5 161.5,235.5 159.5,235.5C 160.194,240.805 160.528,246.138 160.5,251.5C 158.167,251.5 155.833,251.5 153.5,251.5C 157.435,248.359 158.435,244.359 156.5,239.5C 157.634,230.497 157.634,221.497 156.5,212.5C 156.574,209.713 157.24,207.213 158.5,205C 156.527,204.505 154.527,204.338 152.5,204.5 Z"/></g>
<g><path style="opacity:1" fill="#ba7a10" d="M 177.5,206.5 C 178.791,206.263 179.791,206.596 180.5,207.5C 179.167,207.5 177.833,207.5 176.5,207.5C 176.5,217.5 176.5,227.5 176.5,237.5C 171.376,257.436 169.042,256.769 169.5,235.5C 170.933,226.7 171.933,217.7 172.5,208.5C 173.85,207.05 175.516,206.383 177.5,206.5 Z"/></g>
<g><path style="opacity:0.915" fill="#9d9929" d="M 415.5,203.5 C 415.5,211.833 415.5,220.167 415.5,228.5C 413.533,228.739 411.699,228.406 410,227.5C 409.503,225.19 409.337,222.857 409.5,220.5C 409.675,218.379 409.341,216.379 408.5,214.5C 408.517,212.435 408.85,210.435 409.5,208.5C 410.167,214.5 410.833,220.5 411.5,226.5C 412.5,226.5 413.5,226.5 414.5,226.5C 414.5,219.167 414.5,211.833 414.5,204.5C 414.5,203.833 414.833,203.5 415.5,203.5 Z"/></g>
<g><path style="opacity:1" fill="#ca6305" d="M 180.5,207.5 C 181.492,207.328 182.158,207.662 182.5,208.5C 182.5,217.5 182.5,226.5 182.5,235.5C 180.114,235.259 178.114,235.925 176.5,237.5C 176.5,227.5 176.5,217.5 176.5,207.5C 177.833,207.5 179.167,207.5 180.5,207.5 Z"/></g>
<g><path style="opacity:1" fill="#f7eea7" d="M 149.5,205.5 C 149.306,206.968 147.972,207.635 145.5,207.5C 146.139,209.76 147.306,211.76 149,213.5C 149.273,220.867 149.773,228.2 150.5,235.5C 144.729,234.887 139.396,235.554 134.5,237.5C 134.768,239.099 134.434,240.432 133.5,241.5C 133.201,234.109 133.535,226.776 134.5,219.5C 134.121,217.787 133.121,216.787 131.5,216.5C 134.91,212.762 138.91,209.762 143.5,207.5C 145.297,206.27 147.297,205.604 149.5,205.5 Z"/></g>
<g><path style="opacity:1" fill="#c69629" d="M 168.5,203.5 C 171.854,203.747 174.854,204.747 177.5,206.5C 175.516,206.383 173.85,207.05 172.5,208.5C 171.933,217.7 170.933,226.7 169.5,235.5C 168.167,235.5 166.833,235.5 165.5,235.5C 165.067,225.143 164.401,214.81 163.5,204.5C 165.415,204.784 167.081,204.451 168.5,203.5 Z"/></g>
<g><path style="opacity:1" fill="#d7d5a4" d="M 200.5,213.5 C 201.478,213.811 202.145,214.478 202.5,215.5C 201.472,217.361 199.972,218.695 198,219.5C 197.308,218.975 196.808,218.308 196.5,217.5C 197.867,216.16 199.2,214.827 200.5,213.5 Z"/></g>
<g><path style="opacity:1" fill="#e1b82b" d="M 70.5,175.5 C 71.791,175.263 72.791,175.596 73.5,176.5C 72.3995,177.605 71.7329,178.938 71.5,180.5C 70.8826,180.611 70.3826,180.944 70,181.5C 70.1623,222.512 69.329,263.179 67.5,303.5C 67.3333,263.499 67.5,223.499 68,183.5C 68.2752,180.588 69.1086,177.921 70.5,175.5 Z"/></g>
<g><path style="opacity:1" fill="#e9e295" d="M 200.5,197.5 C 213.007,206.353 220.674,218.353 223.5,233.5C 221.896,232.713 221.229,231.38 221.5,229.5C 218.873,228.908 216.206,228.575 213.5,228.5C 213.5,230.5 213.5,232.5 213.5,234.5C 210.494,224.159 205.16,215.159 197.5,207.5C 198.609,207.443 199.609,207.11 200.5,206.5C 200.5,207.5 200.5,208.5 200.5,209.5C 202.167,209.5 203.833,209.5 205.5,209.5C 206.244,206.05 204.91,204.384 201.5,204.5C 202.263,203.732 203.263,203.232 204.5,203C 202.924,201.27 201.59,199.437 200.5,197.5 Z"/></g>
<g><path style="opacity:0.792" fill="#6c691e" d="M 283.5,224.5 C 284.451,223.081 284.784,221.415 284.5,219.5C 286.939,228.928 288.105,228.594 288,218.5C 286.978,217.646 286.145,216.646 285.5,215.5C 287.216,214.451 288.549,213.118 289.5,211.5C 289.5,212.167 289.833,212.5 290.5,212.5C 289.521,216.817 289.687,221.15 291,225.5C 294.577,218.442 297.577,211.109 300,203.5C 302.381,202.565 304.881,202.232 307.5,202.5C 310.375,211.123 313.042,219.79 315.5,228.5C 313.167,228.5 310.833,228.5 308.5,228.5C 308.843,224.866 307.177,223.199 303.5,223.5C 300.216,223.316 298.216,224.816 297.5,228C 296.5,228.167 295.5,228.333 294.5,228.5C 291.25,228.348 287.917,228.015 284.5,227.5C 283.873,226.583 283.539,225.583 283.5,224.5 Z M 302.5,204.5 C 303.822,204.33 304.989,204.663 306,205.5C 308.402,212.205 310.902,218.872 313.5,225.5C 312.635,226.583 311.635,226.749 310.5,226C 309.818,222.104 307.485,220.604 303.5,221.5C 299.491,220.99 297.491,222.657 297.5,226.5C 295.897,226.688 294.563,226.188 293.5,225C 296.128,217.963 299.128,211.129 302.5,204.5 Z M 302.5,213.5 C 303.586,213.62 304.253,214.287 304.5,215.5C 304.167,216.167 303.833,216.833 303.5,217.5C 302.571,216.311 302.238,214.978 302.5,213.5 Z"/></g>
<g><path style="opacity:0.689" fill="#6a661e" d="M 302.5,208.5 C 303.75,208.577 304.583,209.244 305,210.5C 306.43,213.353 307.263,216.353 307.5,219.5C 304.753,219.813 302.086,219.48 299.5,218.5C 300.505,215.154 301.505,211.821 302.5,208.5 Z M 302.5,213.5 C 302.238,214.978 302.571,216.311 303.5,217.5C 303.833,216.833 304.167,216.167 304.5,215.5C 304.253,214.287 303.586,213.62 302.5,213.5 Z"/></g>
<g><path style="opacity:1" fill="#d4cfa4" d="M 122.5,216.5 C 124.384,216.712 125.717,217.712 126.5,219.5C 122.672,221.252 121.339,220.252 122.5,216.5 Z"/></g>
<g><path style="opacity:0.901" fill="#8c8826" d="M 284.5,219.5 C 284.784,221.415 284.451,223.081 283.5,224.5C 284.168,219.839 282.168,217.839 277.5,218.5C 275.612,220.988 274.945,223.988 275.5,227.5C 274.532,225.393 274.198,223.059 274.5,220.5C 274.222,218.654 274.889,217.32 276.5,216.5C 279.65,216.766 282.317,217.766 284.5,219.5 Z"/></g>
<g><path style="opacity:0.394" fill="#484614" d="M 277.5,218.5 C 276.912,221.61 276.245,224.61 275.5,227.5C 274.945,223.988 275.612,220.988 277.5,218.5 Z"/></g>
<g><path style="opacity:0.722" fill="#a08233" d="M 70.5,175.5 C 69.1086,177.921 68.2752,180.588 68,183.5C 67.5,223.499 67.3333,263.499 67.5,303.5C 66.3354,262.669 66.1687,221.669 67,180.5C 67.2233,178.119 68.39,176.453 70.5,175.5 Z"/></g>
<g><path style="opacity:1" fill="#e6e3b2" d="M 205.5,220.5 C 204.085,221.289 202.585,221.956 201,222.5C 199.97,222.164 199.47,221.497 199.5,220.5C 200.807,219.847 202.14,219.18 203.5,218.5C 204.522,218.855 205.189,219.522 205.5,220.5 Z"/></g>
<g><path style="opacity:1" fill="#969227" d="M 362.5,210.5 C 362.5,213.5 362.5,216.5 362.5,219.5C 361.464,223.87 358.797,226.536 354.5,227.5C 353.508,227.672 352.842,227.338 352.5,226.5C 357.4,226.102 360.233,223.435 361,218.5C 362.088,205.428 356.255,201.095 343.5,205.5C 343.137,206.183 342.804,206.85 342.5,207.5C 342.824,214.354 342.491,221.021 341.5,227.5C 341.5,219.167 341.5,210.833 341.5,202.5C 346.93,202.161 352.264,202.661 357.5,204C 360.495,205.164 362.161,207.331 362.5,210.5 Z M 352.5,226.5 C 349.5,226.5 346.5,226.5 343.5,226.5C 343.823,219.978 343.49,213.645 342.5,207.5C 342.804,206.85 343.137,206.183 343.5,205.5C 356.255,201.095 362.088,205.428 361,218.5C 360.233,223.435 357.4,226.102 352.5,226.5 Z M 356.5,212.5 C 357.029,216.192 356.029,219.358 353.5,222C 351.833,222.667 350.167,222.667 348.5,222C 347.536,217.934 347.203,213.767 347.5,209.5C 351.516,207.632 354.516,208.632 356.5,212.5 Z"/></g>
<g><path style="opacity:0.91" fill="#6b671e" d="M 346.5,207.5 C 349.405,206.299 352.405,206.466 355.5,208C 356.823,208.816 357.489,209.983 357.5,211.5C 356.833,211.5 356.5,211.833 356.5,212.5C 354.516,208.632 351.516,207.632 347.5,209.5C 347.672,208.508 347.338,207.842 346.5,207.5 Z"/></g>
<g><path style="opacity:0.861" fill="#8f8a26" d="M 346.5,207.5 C 347.338,207.842 347.672,208.508 347.5,209.5C 347.203,213.767 347.536,217.934 348.5,222C 350.167,222.667 351.833,222.667 353.5,222C 356.029,219.358 357.029,216.192 356.5,212.5C 356.5,211.833 356.833,211.5 357.5,211.5C 359.913,221.082 356.246,225.416 346.5,224.5C 346.5,218.833 346.5,213.167 346.5,207.5 Z"/></g>
<g><path style="opacity:1" fill="#cec7a6" d="M 119.5,220.5 C 121.941,221.084 123.441,222.417 124,224.5C 120.681,225.644 119.181,224.311 119.5,220.5 Z"/></g>
<g><path style="opacity:1" fill="#f8e262" d="M 131.5,216.5 C 133.121,216.787 134.121,217.787 134.5,219.5C 133.535,226.776 133.201,234.109 133.5,241.5C 133.5,242.167 133.5,242.833 133.5,243.5C 132.209,243.737 131.209,243.404 130.5,242.5C 130.963,235.003 130.296,227.669 128.5,220.5C 128.557,219.391 128.89,218.391 129.5,217.5C 130.167,217.167 130.833,216.833 131.5,216.5 Z"/></g>
<g><path style="opacity:1" fill="#443b22" d="M 199.5,220.5 C 199.47,221.497 199.97,222.164 201,222.5C 202.585,221.956 204.085,221.289 205.5,220.5C 205.833,221.167 206.167,221.833 206.5,222.5C 204.467,222.949 202.8,223.949 201.5,225.5C 201.808,226.308 202.308,226.975 203,227.5C 204.33,226.418 205.83,225.751 207.5,225.5C 208.167,226.167 208.833,226.833 209.5,227.5C 206.031,226.887 204.031,228.221 203.5,231.5C 205.216,231.371 206.883,231.038 208.5,230.5C 209.167,231.167 209.833,231.833 210.5,232.5C 211.768,234.905 212.435,237.572 212.5,240.5C 210.167,240.5 207.833,240.5 205.5,240.5C 205.167,240.5 204.833,240.5 204.5,240.5C 204.784,238.585 204.451,236.919 203.5,235.5C 202.588,230.345 200.588,225.678 197.5,221.5C 198.167,221.167 198.833,220.833 199.5,220.5 Z"/></g>
<g><path style="opacity:1" fill="#dad6a3" d="M 206.5,222.5 C 207.404,223.209 207.737,224.209 207.5,225.5C 205.83,225.751 204.33,226.418 203,227.5C 202.308,226.975 201.808,226.308 201.5,225.5C 202.8,223.949 204.467,222.949 206.5,222.5 Z"/></g>
<g><path style="opacity:0.824" fill="#66631e" d="M 367.5,206.5 C 368.167,206.5 368.833,206.5 369.5,206.5C 364.213,213.492 364.879,219.992 371.5,226C 374.482,226.498 377.482,226.665 380.5,226.5C 378.167,227.167 375.833,227.833 373.5,228.5C 367.939,226.938 364.939,223.271 364.5,217.5C 364.5,216.167 364.5,214.833 364.5,213.5C 364.552,210.654 365.552,208.32 367.5,206.5 Z"/></g>
<g><path style="opacity:1" fill="#e0d075" d="M 108.5,218.5 C 108.833,218.5 109.167,218.5 109.5,218.5C 110.151,221.803 111.818,224.47 114.5,226.5C 114.279,229.067 113.612,231.401 112.5,233.5C 112.516,231.516 111.516,230.516 109.5,230.5C 106.117,230.863 103.783,232.53 102.5,235.5C 102.934,229.193 104.934,223.526 108.5,218.5 Z"/></g>
<g><path style="opacity:1" fill="#dfca72" d="M 149.5,205.5 C 149.5,205.167 149.5,204.833 149.5,204.5C 150.5,204.5 151.5,204.5 152.5,204.5C 154.527,204.338 156.527,204.505 158.5,205C 157.24,207.213 156.574,209.713 156.5,212.5C 157.634,221.497 157.634,230.497 156.5,239.5C 156.167,239.5 155.833,239.5 155.5,239.5C 154.341,237.75 152.674,236.75 150.5,236.5C 150.5,236.167 150.5,235.833 150.5,235.5C 149.773,228.2 149.273,220.867 149,213.5C 147.306,211.76 146.139,209.76 145.5,207.5C 147.972,207.635 149.306,206.968 149.5,205.5 Z"/></g>
<g><path style="opacity:0.412" fill="#383512" d="M 342.5,207.5 C 343.49,213.645 343.823,219.978 343.5,226.5C 346.5,226.5 349.5,226.5 352.5,226.5C 352.842,227.338 353.508,227.672 354.5,227.5C 350.167,228.833 345.833,228.833 341.5,227.5C 342.491,221.021 342.824,214.354 342.5,207.5 Z"/></g>
<g><path style="opacity:1" fill="#c5be7d" d="M 120.5,229.5 C 119.391,229.443 118.391,229.11 117.5,228.5C 116.263,227.257 116.596,226.257 118.5,225.5C 121.038,226.257 121.705,227.59 120.5,229.5 Z"/></g>
<g><path style="opacity:1" fill="#d1ce9c" d="M 209.5,227.5 C 209.737,228.791 209.404,229.791 208.5,230.5C 206.883,231.038 205.216,231.371 203.5,231.5C 204.031,228.221 206.031,226.887 209.5,227.5 Z"/></g>
<g><path style="opacity:1" fill="#f2c724" d="M 128.5,220.5 C 130.296,227.669 130.963,235.003 130.5,242.5C 128.292,241.977 126.792,240.644 126,238.5C 125.502,233.481 125.668,228.481 126.5,223.5C 126.932,222.29 127.599,221.29 128.5,220.5 Z"/></g>
<g><path style="opacity:1" fill="#cd930b" d="M 186.5,210.5 C 188.525,212.196 190.525,213.863 192.5,215.5C 194.324,221.988 194.991,228.654 194.5,235.5C 193.833,236.833 193.167,238.167 192.5,239.5C 190.698,232.905 189.865,225.905 190,218.5C 187.935,216.263 186.769,213.597 186.5,210.5 Z"/></g>
<g><path style="opacity:1" fill="#d9af3c" d="M 192.5,215.5 C 194.156,217.46 195.823,219.46 197.5,221.5C 200.588,225.678 202.588,230.345 203.5,235.5C 203.19,237.144 202.19,238.144 200.5,238.5C 199.833,237.833 199.167,237.167 198.5,236.5C 197.432,235.566 196.099,235.232 194.5,235.5C 194.991,228.654 194.324,221.988 192.5,215.5 Z"/></g>
<g><path style="opacity:1" fill="#ccb853" d="M 120.5,231.5 C 120.5,232.167 120.5,232.833 120.5,233.5C 118.833,233.5 117.167,233.5 115.5,233.5C 115.5,232.5 115.5,231.5 115.5,230.5C 117.216,230.629 118.883,230.962 120.5,231.5 Z"/></g>
<g><path style="opacity:1" fill="#d79211" d="M 126.5,223.5 C 125.668,228.481 125.502,233.481 126,238.5C 126.792,240.644 128.292,241.977 130.5,242.5C 131.209,243.404 132.209,243.737 133.5,243.5C 133.5,243.833 133.5,244.167 133.5,244.5C 130.199,244.347 127.199,243.347 124.5,241.5C 121.804,243.44 120.471,242.773 120.5,239.5C 120.517,237.435 120.85,235.435 121.5,233.5C 122.659,229.849 124.326,226.515 126.5,223.5 Z"/></g>
<g><path style="opacity:1" fill="#e3c65c" d="M 223.5,233.5 C 224.461,235.265 224.795,237.265 224.5,239.5C 224.819,244.363 224.486,249.03 223.5,253.5C 223.5,250.167 223.5,246.833 223.5,243.5C 223.492,240.455 223.159,237.455 222.5,234.5C 219.393,233.924 216.393,233.924 213.5,234.5C 213.5,232.5 213.5,230.5 213.5,228.5C 216.206,228.575 218.873,228.908 221.5,229.5C 221.229,231.38 221.896,232.713 223.5,233.5 Z"/></g>
<g><path style="opacity:1" fill="#e3e2a7" d="M 210.5,232.5 C 209.597,235.119 207.931,235.786 205.5,234.5C 206.668,232.783 208.335,232.116 210.5,232.5 Z"/></g>
<g><path style="opacity:1" fill="#d4a328" d="M 112.5,233.5 C 112.737,234.791 112.404,235.791 111.5,236.5C 109.358,236.69 107.025,236.856 104.5,237C 103.126,240.41 102.459,240.243 102.5,236.5C 102.5,236.167 102.5,235.833 102.5,235.5C 103.783,232.53 106.117,230.863 109.5,230.5C 111.516,230.516 112.516,231.516 112.5,233.5 Z"/></g>
<g><path style="opacity:1" fill="#48442e" d="M 150.5,235.5 C 150.5,235.833 150.5,236.167 150.5,236.5C 145.073,236.218 139.74,236.551 134.5,237.5C 139.396,235.554 144.729,234.887 150.5,235.5 Z"/></g>
<g><path style="opacity:1" fill="#060401" d="M 150.5,236.5 C 152.674,236.75 154.341,237.75 155.5,239.5C 155.662,241.527 155.495,243.527 155,245.5C 153.58,247.444 152.08,249.277 150.5,251C 151.039,253.482 152.039,255.648 153.5,257.5C 153.421,258.93 153.754,260.264 154.5,261.5C 152.257,262.474 149.924,262.808 147.5,262.5C 145.27,261.225 143.937,259.225 143.5,256.5C 143.205,254.577 142.372,252.91 141,251.5C 139.846,255.104 139.013,258.771 138.5,262.5C 136.167,262.5 133.833,262.5 131.5,262.5C 130.167,262.5 129.5,261.833 129.5,260.5C 130.913,257.781 131.58,254.781 131.5,251.5C 132.407,249.343 133.073,247.01 133.5,244.5C 133.5,244.167 133.5,243.833 133.5,243.5C 133.5,242.833 133.5,242.167 133.5,241.5C 134.434,240.432 134.768,239.099 134.5,237.5C 139.74,236.551 145.073,236.218 150.5,236.5 Z"/></g>
<g><path style="opacity:1" fill="#0b0600" d="M 165.5,235.5 C 166.833,235.5 168.167,235.5 169.5,235.5C 169.042,256.769 171.376,257.436 176.5,237.5C 178.114,235.925 180.114,235.259 182.5,235.5C 184.483,235.157 185.817,235.824 186.5,237.5C 186.334,242.844 186.501,248.177 187,253.5C 187.847,251.807 188.68,250.14 189.5,248.5C 190.302,245.426 191.302,242.426 192.5,239.5C 193.167,238.167 193.833,236.833 194.5,235.5C 196.099,235.232 197.432,235.566 198.5,236.5C 194.647,244.888 191.314,253.555 188.5,262.5C 185.833,262.5 183.167,262.5 180.5,262.5C 178.692,261.082 178.025,259.082 178.5,256.5C 178.477,254.073 177.977,251.74 177,249.5C 175.263,253.542 173.43,257.542 171.5,261.5C 168.914,262.48 166.247,262.813 163.5,262.5C 162.833,262.5 162.167,262.5 161.5,262.5C 161.448,258.802 161.114,255.135 160.5,251.5C 160.528,246.138 160.194,240.805 159.5,235.5C 161.5,235.5 163.5,235.5 165.5,235.5 Z"/></g>
<g><path style="opacity:1" fill="#cf991f" d="M 223.5,243.5 C 221.265,243.205 219.265,243.539 217.5,244.5C 216.596,245.209 216.263,246.209 216.5,247.5C 215.833,247.167 215.167,246.833 214.5,246.5C 214.354,242.481 214.021,238.481 213.5,234.5C 216.393,233.924 219.393,233.924 222.5,234.5C 223.159,237.455 223.492,240.455 223.5,243.5 Z"/></g>
<g><path style="opacity:1" fill="#e4e4a2" d="M 206.5,237.5 C 208.288,237.215 209.955,237.548 211.5,238.5C 210.667,238.833 209.833,239.167 209,239.5C 207.624,239.316 206.791,238.649 206.5,237.5 Z"/></g>
<g><path style="opacity:1" fill="#827a53" d="M 147.5,240.5 C 146.25,240.577 145.417,241.244 145,242.5C 144.22,244.387 144.387,246.054 145.5,247.5C 144.432,248.434 143.099,248.768 141.5,248.5C 141.911,245.447 142.577,242.447 143.5,239.5C 145.24,238.191 146.573,238.524 147.5,240.5 Z"/></g>
<g><path style="opacity:1" fill="#be7b19" d="M 102.5,236.5 C 102.459,240.243 103.126,240.41 104.5,237C 107.025,236.856 109.358,236.69 111.5,236.5C 111.221,243.937 111.888,251.27 113.5,258.5C 112.768,257.192 111.934,255.858 111,254.5C 108.619,255.435 106.119,255.768 103.5,255.5C 102.833,254.167 102.167,252.833 101.5,251.5C 101.179,246.305 101.513,241.305 102.5,236.5 Z"/></g>
<g><path style="opacity:1" fill="#c88009" d="M 203.5,235.5 C 204.451,236.919 204.784,238.585 204.5,240.5C 204.5,242.5 204.5,244.5 204.5,246.5C 202.283,245.631 199.95,245.298 197.5,245.5C 198.227,243.046 199.227,240.713 200.5,238.5C 202.19,238.144 203.19,237.144 203.5,235.5 Z"/></g>
<g><path style="opacity:1" fill="#b7af76" d="M 206.5,241.5 C 208.5,241.5 210.5,241.5 212.5,241.5C 212.5,242.833 212.5,244.167 212.5,245.5C 210.5,245.5 208.5,245.5 206.5,245.5C 206.5,244.167 206.5,242.833 206.5,241.5 Z"/></g>
<g><path style="opacity:1" fill="#c06604" d="M 120.5,239.5 C 120.471,242.773 121.804,243.44 124.5,241.5C 127.199,243.347 130.199,244.347 133.5,244.5C 133.073,247.01 132.407,249.343 131.5,251.5C 127.523,251.371 123.857,251.371 120.5,251.5C 119.662,251.158 119.328,250.492 119.5,249.5C 119.187,245.958 119.521,242.625 120.5,239.5 Z"/></g>
<g><path style="opacity:1" fill="#d8ce8d" d="M 147.5,240.5 C 147.834,243.188 147.168,245.521 145.5,247.5C 144.387,246.054 144.22,244.387 145,242.5C 145.417,241.244 146.25,240.577 147.5,240.5 Z"/></g>
<g><path style="opacity:1" fill="#857039" d="M 155.5,239.5 C 155.833,239.5 156.167,239.5 156.5,239.5C 158.435,244.359 157.435,248.359 153.5,251.5C 152.709,253.309 152.709,255.309 153.5,257.5C 152.039,255.648 151.039,253.482 150.5,251C 152.08,249.277 153.58,247.444 155,245.5C 155.495,243.527 155.662,241.527 155.5,239.5 Z"/></g>
<g><path style="opacity:1" fill="#a48871" d="M 217.5,244.5 C 218.5,244.5 219.5,244.5 220.5,244.5C 220.5,246.167 220.5,247.833 220.5,249.5C 218.517,249.843 217.183,249.176 216.5,247.5C 216.263,246.209 216.596,245.209 217.5,244.5 Z"/></g>
<g><path style="opacity:1" fill="#9e9176" d="M 105.5,244.5 C 106.5,244.5 107.5,244.5 108.5,244.5C 108.5,246.167 108.5,247.833 108.5,249.5C 104.716,249.475 103.716,247.808 105.5,244.5 Z"/></g>
<g><path style="opacity:1" fill="#754103" d="M 186.5,237.5 C 188.125,240.891 189.125,244.558 189.5,248.5C 188.68,250.14 187.847,251.807 187,253.5C 186.501,248.177 186.334,242.844 186.5,237.5 Z"/></g>
<g><path style="opacity:1" fill="#d4c283" d="M 206.5,246.5 C 208.5,246.5 210.5,246.5 212.5,246.5C 212.5,247.5 212.5,248.5 212.5,249.5C 210.5,249.5 208.5,249.5 206.5,249.5C 206.5,248.5 206.5,247.5 206.5,246.5 Z"/></g>
<g><path style="opacity:1" fill="#c76605" d="M 197.5,245.5 C 199.95,245.298 202.283,245.631 204.5,246.5C 204.5,248.167 204.5,249.833 204.5,251.5C 201.396,252.775 198.396,252.775 195.5,251.5C 195.971,249.421 196.637,247.421 197.5,245.5 Z"/></g>
<g><path style="opacity:1" fill="#472d12" d="M 204.5,240.5 C 204.833,240.5 205.167,240.5 205.5,240.5C 205.205,242.735 205.539,244.735 206.5,246.5C 206.5,247.5 206.5,248.5 206.5,249.5C 208.5,249.5 210.5,249.5 212.5,249.5C 211.833,250.167 211.167,250.833 210.5,251.5C 208.712,251.215 207.045,251.548 205.5,252.5C 205.667,252.833 205.833,253.167 206,253.5C 208.041,254.423 210.208,254.756 212.5,254.5C 212.833,254.5 213.167,254.5 213.5,254.5C 212.508,257.823 211.508,261.156 210.5,264.5C 208.833,267.833 207.167,271.167 205.5,274.5C 204.167,275.833 202.833,277.167 201.5,278.5C 200.391,278.557 199.391,278.89 198.5,279.5C 197.833,278.167 196.833,277.167 195.5,276.5C 195.167,275.833 194.833,275.167 194.5,274.5C 195.752,272.999 196.752,271.332 197.5,269.5C 201.389,264.177 203.722,258.177 204.5,251.5C 204.5,249.833 204.5,248.167 204.5,246.5C 204.5,244.5 204.5,242.5 204.5,240.5 Z"/></g>
<g><path style="opacity:1" fill="#643615" d="M 119.5,249.5 C 119.328,250.492 119.662,251.158 120.5,251.5C 120.171,254.228 120.837,256.562 122.5,258.5C 122.767,260.965 123.434,263.299 124.5,265.5C 123.833,265.5 123.167,265.5 122.5,265.5C 121.393,263.153 119.726,262.82 117.5,264.5C 116.847,263.193 116.18,261.86 115.5,260.5C 118.131,258.995 117.797,258.329 114.5,258.5C 114.227,256.549 114.893,255.049 116.5,254C 115.552,253.517 114.552,253.351 113.5,253.5C 113.5,252.167 113.5,250.833 113.5,249.5C 115.5,249.5 117.5,249.5 119.5,249.5 Z"/></g>
<g><path style="opacity:1" fill="#b6a665" d="M 210.5,251.5 C 212.048,251.821 212.715,252.821 212.5,254.5C 210.208,254.756 208.041,254.423 206,253.5C 205.833,253.167 205.667,252.833 205.5,252.5C 207.045,251.548 208.712,251.215 210.5,251.5 Z"/></g>
<g><path style="opacity:1" fill="#bc861e" d="M 131.5,251.5 C 131.58,254.781 130.913,257.781 129.5,260.5C 127.721,258.656 125.388,257.99 122.5,258.5C 120.837,256.562 120.171,254.228 120.5,251.5C 123.857,251.371 127.523,251.371 131.5,251.5 Z"/></g>
<g><path style="opacity:1" fill="#aa7a21" d="M 153.5,251.5 C 155.833,251.5 158.167,251.5 160.5,251.5C 161.114,255.135 161.448,258.802 161.5,262.5C 160.539,260.735 160.205,258.735 160.5,256.5C 158.5,256.5 156.5,256.5 154.5,256.5C 154.756,258.937 155.423,261.271 156.5,263.5C 155,263.833 153.5,264.167 152,264.5C 150.014,264.431 148.514,263.765 147.5,262.5C 149.924,262.808 152.257,262.474 154.5,261.5C 153.754,260.264 153.421,258.93 153.5,257.5C 152.709,255.309 152.709,253.309 153.5,251.5 Z"/></g>
<g><path style="opacity:1" fill="#be7c18" d="M 217.5,244.5 C 219.265,243.539 221.265,243.205 223.5,243.5C 223.5,246.833 223.5,250.167 223.5,253.5C 222.962,255.117 222.629,256.784 222.5,258.5C 220.901,258.232 219.568,258.566 218.5,259.5C 217.167,259.5 215.833,259.5 214.5,259.5C 214.5,256.5 214.5,253.5 214.5,250.5C 214.5,249.167 214.5,247.833 214.5,246.5C 215.167,246.833 215.833,247.167 216.5,247.5C 217.183,249.176 218.517,249.843 220.5,249.5C 220.5,247.833 220.5,246.167 220.5,244.5C 219.5,244.5 218.5,244.5 217.5,244.5 Z"/></g>
<g><path style="opacity:0.825" fill="#7a7621" d="M 302.5,264.5 C 302.457,268.893 302.957,269.226 304,265.5C 304.483,266.448 304.649,267.448 304.5,268.5C 304.649,269.552 304.483,270.552 304,271.5C 303.333,272.833 302.667,272.833 302,271.5C 301,266.5 300,261.5 299,256.5C 297.667,255.167 296.333,255.167 295,256.5C 294.029,262.004 292.529,267.337 290.5,272.5C 289.001,267.173 287.501,261.839 286,256.5C 284.513,255.259 283.68,255.759 283.5,258C 285.095,264.544 287.095,270.877 289.5,277C 290.448,277.483 291.448,277.649 292.5,277.5C 293.576,271.119 294.91,264.786 296.5,258.5C 298.661,263.634 299.995,268.967 300.5,274.5C 300.768,276.099 300.434,277.432 299.5,278.5C 298.861,274.473 298.028,270.473 297,266.5C 295.993,270.496 294.826,274.496 293.5,278.5C 291.604,279.466 289.604,279.799 287.5,279.5C 285.467,271.237 283.134,263.07 280.5,255C 282.594,253.648 284.927,253.148 287.5,253.5C 288.458,257.942 289.624,262.275 291,266.5C 291.559,262.814 292.226,259.147 293,255.5C 295.025,253.275 297.358,252.941 300,254.5C 300.776,257.889 301.609,261.222 302.5,264.5 Z"/></g>
<g><path style="opacity:0.94" fill="#615e1c" d="M 299.5,278.5 C 300.434,277.432 300.768,276.099 300.5,274.5C 301.404,275.209 301.737,276.209 301.5,277.5C 302.822,277.67 303.989,277.337 305,276.5C 306.679,270.116 308.512,263.783 310.5,257.5C 309.965,255.729 309.131,255.396 308,256.5C 306.509,260.543 305.342,264.543 304.5,268.5C 304.649,267.448 304.483,266.448 304,265.5C 302.957,269.226 302.457,268.893 302.5,264.5C 303.117,264.389 303.617,264.056 304,263.5C 304.794,260.529 305.461,257.529 306,254.5C 308.041,253.577 310.208,253.244 312.5,253.5C 310.987,261.552 309.154,269.552 307,277.5C 304.643,279.646 302.143,279.979 299.5,278.5 Z"/></g>
<g><path style="opacity:1" fill="#68641d" d="M 320.5,253.5 C 323.119,253.232 325.619,253.565 328,254.5C 330.448,262.514 333.281,270.347 336.5,278C 332.15,280.675 329.15,279.675 327.5,275C 323.271,273.502 320.271,274.669 318.5,278.5C 316.604,279.466 314.604,279.799 312.5,279.5C 314.558,270.659 317.225,261.992 320.5,253.5 Z M 322.5,255.5 C 324.39,255.297 325.89,255.963 327,257.5C 329.673,264.019 331.84,270.686 333.5,277.5C 330.53,277.254 329.197,275.588 329.5,272.5C 325.833,272.5 322.167,272.5 318.5,272.5C 318.813,276.019 317.48,277.353 314.5,276.5C 316.89,269.388 319.557,262.388 322.5,255.5 Z M 323.5,264.5 C 325.476,265.427 325.809,266.76 324.5,268.5C 322.358,267.563 322.024,266.23 323.5,264.5 Z"/></g>
<g><path style="opacity:0.993" fill="#706d1e" d="M 349.5,278.5 C 348.508,278.672 347.842,278.338 347.5,277.5C 347.5,271.167 347.5,264.833 347.5,258.5C 350.247,258.813 352.914,258.48 355.5,257.5C 355.291,256.914 354.957,256.414 354.5,256C 349.167,255.333 343.833,255.333 338.5,256C 337.748,256.671 337.414,257.504 337.5,258.5C 336.833,258.5 336.5,258.833 336.5,259.5C 335.539,257.735 335.205,255.735 335.5,253.5C 342.532,253.17 349.532,253.503 356.5,254.5C 357.747,256.042 357.747,257.542 356.5,259C 354.236,259.236 352.069,259.736 350,260.5C 349.501,266.491 349.334,272.491 349.5,278.5 Z"/></g>
<g><path style="opacity:0.849" fill="#7d7923" d="M 388.5,254.5 C 387.833,254.5 387.5,254.833 387.5,255.5C 386.178,255.33 385.011,255.663 384,256.5C 384.577,263.482 384.41,270.482 383.5,277.5C 383.5,278.167 383.167,278.5 382.5,278.5C 382.5,270.167 382.5,261.833 382.5,253.5C 384.735,253.205 386.735,253.539 388.5,254.5 Z"/></g>
<g><path style="opacity:0.982" fill="#7c7820" d="M 388.5,254.5 C 386.833,261.5 389.5,264.167 396.5,262.5C 396.5,259.833 396.5,257.167 396.5,254.5C 398.5,254.5 400.5,254.5 402.5,254.5C 402.5,262.5 402.5,270.5 402.5,278.5C 400.735,279.461 398.735,279.795 396.5,279.5C 396.756,275.731 396.423,272.064 395.5,268.5C 396.492,268.672 397.158,268.338 397.5,267.5C 398.479,270.625 398.813,273.958 398.5,277.5C 399.5,277.5 400.5,277.5 401.5,277.5C 401.831,270.137 401.497,262.803 400.5,255.5C 399.914,255.709 399.414,256.043 399,256.5C 398.503,259.146 398.336,261.813 398.5,264.5C 394.833,264.5 391.167,264.5 387.5,264.5C 387.5,261.5 387.5,258.5 387.5,255.5C 387.5,254.833 387.833,254.5 388.5,254.5 Z"/></g>
<g><path style="opacity:0.385" fill="#4d4a14" d="M 396.5,254.5 C 398.607,253.532 400.941,253.198 403.5,253.5C 403.826,262.017 403.493,270.35 402.5,278.5C 402.5,270.5 402.5,262.5 402.5,254.5C 400.5,254.5 398.5,254.5 396.5,254.5 Z"/></g>
<g><path style="opacity:0.776" fill="#726e20" d="M 364.5,253.5 C 373.201,251.664 378.201,254.997 379.5,263.5C 375.831,264.303 373.164,263.136 371.5,260C 366.366,258.958 363.699,261.124 363.5,266.5C 363.699,271.876 366.366,274.042 371.5,273C 373.164,269.864 375.831,268.697 379.5,269.5C 377.906,278.477 372.573,281.644 363.5,279C 356.27,272.507 355.103,265.007 360,256.5C 361.652,255.601 363.152,254.601 364.5,253.5 Z M 364.5,255.5 C 367.518,255.335 370.518,255.502 373.5,256C 376.303,257.112 377.303,258.946 376.5,261.5C 371.832,256.312 367.332,256.312 363,261.5C 362.333,264.833 362.333,268.167 363,271.5C 366.834,276.659 371.001,276.826 375.5,272C 376.332,271.312 376.998,271.479 377.5,272.5C 374.919,277.289 370.919,279.122 365.5,278C 363,276.833 361.167,275 360,272.5C 359.333,268.5 359.333,264.5 360,260.5C 361.366,258.638 362.866,256.972 364.5,255.5 Z"/></g>
<g><path style="opacity:1" fill="#b09944" d="M 204.5,256.5 C 206.5,256.5 208.5,256.5 210.5,256.5C 210.5,257.5 210.5,258.5 210.5,259.5C 208.801,259.66 207.134,259.494 205.5,259C 204.748,258.329 204.414,257.496 204.5,256.5 Z"/></g>
<g><path style="opacity:0.776" fill="#6e451a" d="M 101.5,251.5 C 102.167,252.833 102.833,254.167 103.5,255.5C 103.762,260.888 105.095,265.888 107.5,270.5C 107.5,271.167 107.5,271.833 107.5,272.5C 103.519,266.207 101.519,259.207 101.5,251.5 Z"/></g>
<g><path style="opacity:1" fill="#755b20" d="M 143.5,256.5 C 141.733,258.792 140.733,261.458 140.5,264.5C 136.988,265.055 133.988,264.388 131.5,262.5C 133.833,262.5 136.167,262.5 138.5,262.5C 139.013,258.771 139.846,255.104 141,251.5C 142.372,252.91 143.205,254.577 143.5,256.5 Z"/></g>
<g><path style="opacity:1" fill="#9d7a35" d="M 224.5,239.5 C 227.029,261.123 220.029,279.123 203.5,293.5C 203.5,292.167 203.5,290.833 203.5,289.5C 201.62,289.771 200.287,289.104 199.5,287.5C 199.328,286.508 199.662,285.842 200.5,285.5C 201.048,288.084 202.715,289.084 205.5,288.5C 209.756,285.962 212.756,282.295 214.5,277.5C 216.341,275.151 217.674,272.485 218.5,269.5C 220.605,266.592 221.605,263.258 221.5,259.5C 220.5,259.5 219.5,259.5 218.5,259.5C 219.568,258.566 220.901,258.232 222.5,258.5C 222.629,256.784 222.962,255.117 223.5,253.5C 224.486,249.03 224.819,244.363 224.5,239.5 Z"/></g>
<g><path style="opacity:0.992" fill="#9c9728" d="M 336.5,259.5 C 336.5,258.833 336.833,258.5 337.5,258.5C 340.388,257.99 342.721,258.656 344.5,260.5C 344.666,266.509 344.499,272.509 344,278.5C 343.828,271.987 343.328,265.653 342.5,259.5C 340.5,259.5 338.5,259.5 336.5,259.5 Z"/></g>
<g><path style="opacity:0.562" fill="#393612" d="M 342.5,259.5 C 343.328,265.653 343.828,271.987 344,278.5C 344.499,272.509 344.666,266.509 344.5,260.5C 344.854,266.406 345.854,272.073 347.5,277.5C 347.842,278.338 348.508,278.672 349.5,278.5C 347.393,279.468 345.059,279.802 342.5,279.5C 342.5,272.833 342.5,266.167 342.5,259.5 Z"/></g>
<g><path style="opacity:1" fill="#795e20" d="M 178.5,256.5 C 176.142,258.168 174.476,260.501 173.5,263.5C 171.833,263.833 170.167,264.167 168.5,264.5C 166.36,264.444 164.694,263.777 163.5,262.5C 166.247,262.813 168.914,262.48 171.5,261.5C 173.43,257.542 175.263,253.542 177,249.5C 177.977,251.74 178.477,254.073 178.5,256.5 Z"/></g>
<g><path style="opacity:1" fill="#795619" d="M 198.5,236.5 C 199.167,237.167 199.833,237.833 200.5,238.5C 199.227,240.713 198.227,243.046 197.5,245.5C 196.637,247.421 195.971,249.421 195.5,251.5C 193.263,255.534 191.596,259.868 190.5,264.5C 186.671,265.069 183.337,264.402 180.5,262.5C 183.167,262.5 185.833,262.5 188.5,262.5C 191.314,253.555 194.647,244.888 198.5,236.5 Z"/></g>
<g><path style="opacity:1" fill="#b48c36" d="M 203.5,260.5 C 205.5,260.833 207.5,261.167 209.5,261.5C 209.5,262.5 209.5,263.5 209.5,264.5C 206.392,264.625 204.392,263.292 203.5,260.5 Z"/></g>
<g><path style="opacity:0.976" fill="#797521" d="M 323.5,259.5 C 325.968,262.553 327.301,266.22 327.5,270.5C 325.167,270.5 322.833,270.5 320.5,270.5C 320.894,266.653 321.894,262.986 323.5,259.5 Z M 323.5,264.5 C 322.024,266.23 322.358,267.563 324.5,268.5C 325.809,266.76 325.476,265.427 323.5,264.5 Z"/></g>
<g><path style="opacity:1" fill="#cca544" d="M 214.5,250.5 C 214.5,253.5 214.5,256.5 214.5,259.5C 215.833,259.5 217.167,259.5 218.5,259.5C 219.5,259.5 220.5,259.5 221.5,259.5C 221.605,263.258 220.605,266.592 218.5,269.5C 217.948,266.119 216.114,263.786 213,262.5C 212.925,264.935 212.092,265.602 210.5,264.5C 211.508,261.156 212.508,257.823 213.5,254.5C 213.232,252.901 213.566,251.568 214.5,250.5 Z"/></g>
<g><path style="opacity:1" fill="#a36a2a" d="M 122.5,265.5 C 119.987,268.126 118.32,267.793 117.5,264.5C 119.726,262.82 121.393,263.153 122.5,265.5 Z"/></g>
<g><path style="opacity:1" fill="#d2ac4e" d="M 195.5,251.5 C 198.396,252.775 201.396,252.775 204.5,251.5C 203.722,258.177 201.389,264.177 197.5,269.5C 194.645,267.75 191.311,266.917 187.5,267C 173.833,266.667 160.167,266.333 146.5,266C 144.564,265.187 142.564,264.687 140.5,264.5C 140.733,261.458 141.733,258.792 143.5,256.5C 143.937,259.225 145.27,261.225 147.5,262.5C 148.514,263.765 150.014,264.431 152,264.5C 153.5,264.167 155,263.833 156.5,263.5C 155.423,261.271 154.756,258.937 154.5,256.5C 156.5,256.5 158.5,256.5 160.5,256.5C 160.205,258.735 160.539,260.735 161.5,262.5C 162.167,262.5 162.833,262.5 163.5,262.5C 164.694,263.777 166.36,264.444 168.5,264.5C 170.167,264.167 171.833,263.833 173.5,263.5C 174.476,260.501 176.142,258.168 178.5,256.5C 178.025,259.082 178.692,261.082 180.5,262.5C 183.337,264.402 186.671,265.069 190.5,264.5C 191.596,259.868 193.263,255.534 195.5,251.5 Z"/></g>
<g><path style="opacity:1" fill="#d6b053" d="M 113.5,258.5 C 114.301,260.042 114.634,261.708 114.5,263.5C 114.785,265.288 114.452,266.955 113.5,268.5C 111.591,267.652 109.591,267.318 107.5,267.5C 107.5,268.5 107.5,269.5 107.5,270.5C 105.095,265.888 103.762,260.888 103.5,255.5C 106.119,255.768 108.619,255.435 111,254.5C 111.934,255.858 112.768,257.192 113.5,258.5 Z"/></g>
<g><path style="opacity:0.876" fill="#938e2b" d="M 397.5,267.5 C 397.158,268.338 396.492,268.672 395.5,268.5C 393.542,268.908 391.542,269.241 389.5,269.5C 388.593,272.421 388.26,275.421 388.5,278.5C 387.833,278.5 387.5,278.167 387.5,277.5C 387.5,274.167 387.5,270.833 387.5,267.5C 390.885,266.372 394.219,266.372 397.5,267.5 Z"/></g>
<g><path style="opacity:1" fill="#e4c774" d="M 218.5,269.5 C 217.674,272.485 216.341,275.151 214.5,277.5C 214.785,275.712 214.452,274.045 213.5,272.5C 212.614,273.325 212.281,274.325 212.5,275.5C 210.05,275.702 207.717,275.369 205.5,274.5C 207.167,271.167 208.833,267.833 210.5,264.5C 212.092,265.602 212.925,264.935 213,262.5C 216.114,263.786 217.948,266.119 218.5,269.5 Z"/></g>
<g><path style="opacity:1" fill="#e4ca77" d="M 122.5,258.5 C 125.388,257.99 127.721,258.656 129.5,260.5C 129.5,261.833 130.167,262.5 131.5,262.5C 133.988,264.388 136.988,265.055 140.5,264.5C 142.564,264.687 144.564,265.187 146.5,266C 160.167,266.333 173.833,266.667 187.5,267C 191.311,266.917 194.645,267.75 197.5,269.5C 196.752,271.332 195.752,272.999 194.5,274.5C 194.167,274.5 193.833,274.5 193.5,274.5C 193.389,273.883 193.056,273.383 192.5,273C 171.663,272.171 150.996,272.337 130.5,273.5C 128.147,271.14 126.147,268.473 124.5,265.5C 123.434,263.299 122.767,260.965 122.5,258.5 Z"/></g>
<g><path style="opacity:1" fill="#a36d22" d="M 199.5,268.5 C 203.246,268.627 204.579,270.294 203.5,273.5C 200.649,272.988 199.316,271.321 199.5,268.5 Z"/></g>
<g><path style="opacity:1" fill="#492912" d="M 114.5,226.5 C 114.833,226.5 115.167,226.5 115.5,226.5C 115.281,227.675 115.614,228.675 116.5,229.5C 117.107,229.376 117.44,229.043 117.5,228.5C 118.391,229.11 119.391,229.443 120.5,229.5C 120.5,230.167 120.5,230.833 120.5,231.5C 118.883,230.962 117.216,230.629 115.5,230.5C 115.5,231.5 115.5,232.5 115.5,233.5C 117.167,233.5 118.833,233.5 120.5,233.5C 120.833,233.5 121.167,233.5 121.5,233.5C 120.85,235.435 120.517,237.435 120.5,239.5C 119.521,242.625 119.187,245.958 119.5,249.5C 117.5,249.5 115.5,249.5 113.5,249.5C 113.5,250.833 113.5,252.167 113.5,253.5C 114.552,253.351 115.552,253.517 116.5,254C 114.893,255.049 114.227,256.549 114.5,258.5C 117.797,258.329 118.131,258.995 115.5,260.5C 116.18,261.86 116.847,263.193 117.5,264.5C 118.32,267.793 119.987,268.126 122.5,265.5C 123.167,265.5 123.833,265.5 124.5,265.5C 126.147,268.473 128.147,271.14 130.5,273.5C 130.833,274.5 131.5,275.167 132.5,275.5C 134.336,278.168 136.669,280.334 139.5,282C 144.489,284.486 149.489,286.652 154.5,288.5C 153.209,288.263 152.209,288.596 151.5,289.5C 151.5,290.833 151.5,292.167 151.5,293.5C 152.209,294.404 153.209,294.737 154.5,294.5C 154.246,292.599 154.58,291.933 155.5,292.5C 155.821,294.048 156.821,294.715 158.5,294.5C 158.833,295.167 159.167,295.833 159.5,296.5C 157.833,296.5 156.167,296.5 154.5,296.5C 151.659,295.331 148.659,294.331 145.5,293.5C 142.378,292.439 139.378,291.105 136.5,289.5C 135.035,288.263 133.368,287.263 131.5,286.5C 131.167,285.5 130.5,284.833 129.5,284.5C 126.138,280.808 122.805,277.141 119.5,273.5C 118.341,269.849 116.674,266.515 114.5,263.5C 114.634,261.708 114.301,260.042 113.5,258.5C 111.888,251.27 111.221,243.937 111.5,236.5C 112.404,235.791 112.737,234.791 112.5,233.5C 113.612,231.401 114.279,229.067 114.5,226.5 Z"/></g>
<g><path style="opacity:1" fill="#a86c20" d="M 124.5,271.5 C 125.5,271.5 126.5,271.5 127.5,271.5C 127.55,273.59 126.55,274.923 124.5,275.5C 123.374,274.192 123.374,272.858 124.5,271.5 Z"/></g>
<g><path style="opacity:1" fill="#a87225" d="M 121.5,267.5 C 122.5,267.5 123.5,267.5 124.5,267.5C 124.55,269.59 123.55,270.923 121.5,271.5C 120.374,270.192 120.374,268.858 121.5,267.5 Z"/></g>
<g><path style="opacity:1" fill="#aa6f2c" d="M 113.5,240.5 C 115.167,240.5 116.833,240.5 118.5,240.5C 118.5,241.5 118.5,242.5 118.5,243.5C 116.833,243.5 115.167,243.5 113.5,243.5C 113.5,242.5 113.5,241.5 113.5,240.5 Z"/></g>
<g><path style="opacity:1" fill="#ae8529" d="M 114.5,235.5 C 116.167,235.5 117.833,235.5 119.5,235.5C 119.5,236.5 119.5,237.5 119.5,238.5C 117.833,238.5 116.167,238.5 114.5,238.5C 114.5,237.5 114.5,236.5 114.5,235.5 Z"/></g>
<g><path style="opacity:1" fill="#ebe093" d="M 193.5,274.5 C 192.089,276.914 190.089,278.581 187.5,279.5C 187.389,278.883 187.056,278.383 186.5,278C 168.342,277.421 150.342,276.587 132.5,275.5C 131.5,275.167 130.833,274.5 130.5,273.5C 150.996,272.337 171.663,272.171 192.5,273C 193.056,273.383 193.389,273.883 193.5,274.5 Z"/></g>
<g><path style="opacity:1" fill="#a65c24" d="M 197.5,272.5 C 200.752,273.046 201.752,274.712 200.5,277.5C 197.556,276.632 196.556,274.965 197.5,272.5 Z"/></g>
<g><path style="opacity:1" fill="#dfcb7a" d="M 114.5,263.5 C 116.674,266.515 118.341,269.849 119.5,273.5C 119.225,275.758 118.225,276.092 116.5,274.5C 113.744,276.535 113.077,279.035 114.5,282C 116.692,282.926 118.692,284.093 120.5,285.5C 120.5,286.5 120.5,287.5 120.5,288.5C 123.285,289.084 124.952,288.084 125.5,285.5C 126.708,284.766 128.041,284.433 129.5,284.5C 130.5,284.833 131.167,285.5 131.5,286.5C 127.875,287.06 124.541,288.394 121.5,290.5C 122.193,291.518 122.859,292.518 123.5,293.5C 122.761,293.631 122.094,293.464 121.5,293C 115.438,287.017 110.771,280.183 107.5,272.5C 107.5,271.833 107.5,271.167 107.5,270.5C 107.5,269.5 107.5,268.5 107.5,267.5C 109.591,267.318 111.591,267.652 113.5,268.5C 114.452,266.955 114.785,265.288 114.5,263.5 Z"/></g>
<g><path style="opacity:1" fill="#ede9ac" d="M 119.5,273.5 C 122.805,277.141 126.138,280.808 129.5,284.5C 128.041,284.433 126.708,284.766 125.5,285.5C 123.833,282.833 122.167,282.833 120.5,285.5C 118.692,284.093 116.692,282.926 114.5,282C 113.077,279.035 113.744,276.535 116.5,274.5C 118.225,276.092 119.225,275.758 119.5,273.5 Z"/></g>
<g><path style="opacity:1" fill="#a46929" d="M 126.5,275.5 C 131.467,275.584 131.8,276.918 127.5,279.5C 125.358,278.563 125.024,277.23 126.5,275.5 Z"/></g>
<g><path style="opacity:0.234" fill="#4d4b14" d="M 383.5,277.5 C 384.833,277.5 386.167,277.5 387.5,277.5C 387.5,278.167 387.833,278.5 388.5,278.5C 386.5,279.833 384.5,279.833 382.5,278.5C 383.167,278.5 383.5,278.167 383.5,277.5 Z"/></g>
<g><path style="opacity:1" fill="#f2e9a8" d="M 214.5,277.5 C 212.756,282.295 209.756,285.962 205.5,288.5C 205.703,286.61 205.037,285.11 203.5,284C 202.002,283.415 201.002,283.915 200.5,285.5C 199.662,285.842 199.328,286.508 199.5,287.5C 197.208,286.314 194.874,286.314 192.5,287.5C 195.806,284.86 198.806,281.86 201.5,278.5C 202.833,277.167 204.167,275.833 205.5,274.5C 207.717,275.369 210.05,275.702 212.5,275.5C 212.281,274.325 212.614,273.325 213.5,272.5C 214.452,274.045 214.785,275.712 214.5,277.5 Z"/></g>
<g><path style="opacity:1" fill="#9e7225" d="M 195.5,276.5 C 196.833,277.167 197.833,278.167 198.5,279.5C 198.189,280.478 197.522,281.145 196.5,281.5C 195.5,280.167 194.5,278.833 193.5,277.5C 193.957,276.702 194.624,276.369 195.5,276.5 Z"/></g>
<g><path style="opacity:1" fill="#a06324" d="M 130.5,278.5 C 131.5,278.5 132.5,278.5 133.5,278.5C 133.833,281.5 132.5,282.833 129.5,282.5C 129.433,281.041 129.766,279.708 130.5,278.5 Z"/></g>
<g><path style="opacity:1" fill="#f4efa8" d="M 132.5,275.5 C 150.342,276.587 168.342,277.421 186.5,278C 187.056,278.383 187.389,278.883 187.5,279.5C 181.724,284.156 175.058,286.99 167.5,288C 163.179,288.499 158.846,288.666 154.5,288.5C 149.489,286.652 144.489,284.486 139.5,282C 136.669,280.334 134.336,278.168 132.5,275.5 Z"/></g>
<g><path style="opacity:1" fill="#97937e" d="M 125.5,285.5 C 124.952,288.084 123.285,289.084 120.5,288.5C 120.5,287.5 120.5,286.5 120.5,285.5C 122.167,282.833 123.833,282.833 125.5,285.5 Z"/></g>
<g><path style="opacity:1" fill="#9c9c8a" d="M 205.5,288.5 C 202.715,289.084 201.048,288.084 200.5,285.5C 201.002,283.915 202.002,283.415 203.5,284C 205.037,285.11 205.703,286.61 205.5,288.5 Z"/></g>
<g><path style="opacity:1" fill="#f1c22c" d="M 131.5,286.5 C 133.368,287.263 135.035,288.263 136.5,289.5C 135.821,291.814 134.488,292.147 132.5,290.5C 129.343,291.127 126.343,292.127 123.5,293.5C 122.859,292.518 122.193,291.518 121.5,290.5C 124.541,288.394 127.875,287.06 131.5,286.5 Z"/></g>
<g><path style="opacity:1" fill="#bf8a31" d="M 147.5,287.5 C 149.256,288.552 149.923,290.219 149.5,292.5C 148.5,292.5 147.5,292.5 146.5,292.5C 146.366,290.708 146.699,289.042 147.5,287.5 Z"/></g>
<g><path style="opacity:1" fill="#453920" d="M 193.5,274.5 C 193.833,274.5 194.167,274.5 194.5,274.5C 194.833,275.167 195.167,275.833 195.5,276.5C 194.624,276.369 193.957,276.702 193.5,277.5C 194.5,278.833 195.5,280.167 196.5,281.5C 197.522,281.145 198.189,280.478 198.5,279.5C 199.391,278.89 200.391,278.557 201.5,278.5C 198.806,281.86 195.806,284.86 192.5,287.5C 190.118,288.351 188.118,289.684 186.5,291.5C 184.297,291.604 182.297,292.27 180.5,293.5C 173.697,295.559 166.697,296.559 159.5,296.5C 159.167,295.833 158.833,295.167 158.5,294.5C 158.651,289.386 157.651,288.719 155.5,292.5C 154.58,291.933 154.246,292.599 154.5,294.5C 153.209,294.737 152.209,294.404 151.5,293.5C 152.586,293.38 153.253,292.713 153.5,291.5C 153.253,290.287 152.586,289.62 151.5,289.5C 152.209,288.596 153.209,288.263 154.5,288.5C 158.846,288.666 163.179,288.499 167.5,288C 175.058,286.99 181.724,284.156 187.5,279.5C 190.089,278.581 192.089,276.914 193.5,274.5 Z"/></g>
<g><path style="opacity:1" fill="#bba668" d="M 182.5,284.5 C 184.701,284.858 186.035,286.192 186.5,288.5C 183.08,289.753 181.746,288.419 182.5,284.5 Z"/></g>
<g><path style="opacity:1" fill="#c2b07a" d="M 178.5,286.5 C 181.084,287.048 182.084,288.715 181.5,291.5C 180.5,291.5 179.5,291.5 178.5,291.5C 178.5,289.833 178.5,288.167 178.5,286.5 Z"/></g>
<g><path style="opacity:1" fill="#b0994d" d="M 186.5,282.5 C 189.47,282.746 190.803,284.412 190.5,287.5C 187.53,287.254 186.197,285.588 186.5,282.5 Z"/></g>
<g><path style="opacity:1" fill="#a98532" d="M 190.5,279.5 C 193.719,280.021 194.719,281.688 193.5,284.5C 191.244,283.579 190.244,281.912 190.5,279.5 Z"/></g>
<g><path style="opacity:1" fill="#dfddac" d="M 169.5,289.5 C 170.649,289.791 171.316,290.624 171.5,292C 171.167,292.833 170.833,293.667 170.5,294.5C 169.548,292.955 169.215,291.288 169.5,289.5 Z"/></g>
<g><path style="opacity:1" fill="#f0cf40" d="M 199.5,287.5 C 200.287,289.104 201.62,289.771 203.5,289.5C 203.5,290.833 203.5,292.167 203.5,293.5C 202.833,293.5 202.167,293.5 201.5,293.5C 201.082,292.778 200.416,292.278 199.5,292C 195.179,291.501 190.846,291.334 186.5,291.5C 188.118,289.684 190.118,288.351 192.5,287.5C 194.874,286.314 197.208,286.314 199.5,287.5 Z"/></g>
<g><path style="opacity:1" fill="#e0bd41" d="M 151.5,289.5 C 152.586,289.62 153.253,290.287 153.5,291.5C 153.253,292.713 152.586,293.38 151.5,293.5C 151.5,292.167 151.5,290.833 151.5,289.5 Z"/></g>
<g><path style="opacity:1" fill="#c3bd87" d="M 173.5,288.5 C 174.5,288.5 175.5,288.5 176.5,288.5C 176.421,289.93 176.754,291.264 177.5,292.5C 176.311,293.429 174.978,293.762 173.5,293.5C 173.5,291.833 173.5,290.167 173.5,288.5 Z"/></g>
<g><path style="opacity:1" fill="#a8a683" d="M 164.5,289.5 C 165.5,289.5 166.5,289.5 167.5,289.5C 167.5,291.5 167.5,293.5 167.5,295.5C 166.5,295.5 165.5,295.5 164.5,295.5C 164.5,293.5 164.5,291.5 164.5,289.5 Z"/></g>
<g><path style="opacity:1" fill="#dc9818" d="M 136.5,289.5 C 139.378,291.105 142.378,292.439 145.5,293.5C 139.265,293.853 133.265,294.853 127.5,296.5C 125.596,296.262 124.262,295.262 123.5,293.5C 126.343,292.127 129.343,291.127 132.5,290.5C 134.488,292.147 135.821,291.814 136.5,289.5 Z"/></g>
<g><path style="opacity:1" fill="#d6ca75" d="M 158.5,294.5 C 156.821,294.715 155.821,294.048 155.5,292.5C 157.651,288.719 158.651,289.386 158.5,294.5 Z"/></g>
<g><path style="opacity:1" fill="#e2a018" d="M 186.5,291.5 C 190.846,291.334 195.179,291.501 199.5,292C 200.416,292.278 201.082,292.778 201.5,293.5C 198.429,295.898 195.095,297.898 191.5,299.5C 191.67,298.178 191.337,297.011 190.5,296C 187.146,295.545 183.813,295.045 180.5,294.5C 180.5,294.167 180.5,293.833 180.5,293.5C 182.297,292.27 184.297,291.604 186.5,291.5 Z"/></g>
<g><path style="opacity:1" fill="#cb7310" d="M 145.5,293.5 C 148.659,294.331 151.659,295.331 154.5,296.5C 154.5,296.833 154.5,297.167 154.5,297.5C 147.492,297.334 140.492,297.5 133.5,298C 134.823,298.816 135.489,299.983 135.5,301.5C 132.296,300.617 129.629,298.95 127.5,296.5C 133.265,294.853 139.265,293.853 145.5,293.5 Z"/></g>
<g><path style="opacity:1" fill="#cf6206" d="M 154.5,297.5 C 155.919,298.451 157.585,298.784 159.5,298.5C 159.5,299.5 159.5,300.5 159.5,301.5C 151.551,301.646 143.551,301.646 135.5,301.5C 135.489,299.983 134.823,298.816 133.5,298C 140.492,297.5 147.492,297.334 154.5,297.5 Z"/></g>
<g><path style="opacity:1" fill="#b96e23" d="M 180.5,293.5 C 180.5,293.833 180.5,294.167 180.5,294.5C 176.092,297.487 171.092,299.154 165.5,299.5C 166.246,300.736 166.579,302.07 166.5,303.5C 165.833,303.833 165.167,304.167 164.5,304.5C 161.324,306.273 159.657,305.273 159.5,301.5C 159.5,300.5 159.5,299.5 159.5,298.5C 157.585,298.784 155.919,298.451 154.5,297.5C 154.5,297.167 154.5,296.833 154.5,296.5C 156.167,296.5 157.833,296.5 159.5,296.5C 166.697,296.559 173.697,295.559 180.5,293.5 Z"/></g>
<g><path style="opacity:1" fill="#ce6805" d="M 180.5,294.5 C 183.813,295.045 187.146,295.545 190.5,296C 191.337,297.011 191.67,298.178 191.5,299.5C 186.797,302.016 181.797,303.683 176.5,304.5C 172.958,304.813 169.625,304.479 166.5,303.5C 166.579,302.07 166.246,300.736 165.5,299.5C 171.092,299.154 176.092,297.487 180.5,294.5 Z"/></g>
<g><path style="opacity:1" fill="#cc7d14" d="M 135.5,301.5 C 143.551,301.646 151.551,301.646 159.5,301.5C 159.657,305.273 161.324,306.273 164.5,304.5C 165.167,304.167 165.833,303.833 166.5,303.5C 169.625,304.479 172.958,304.813 176.5,304.5C 175.1,305.1 174.1,306.1 173.5,307.5C 160.041,309.812 147.375,307.812 135.5,301.5 Z"/></g>
<g><path style="opacity:0.788" fill="#d7b873" d="M 201.5,293.5 C 202.167,293.5 202.833,293.5 203.5,293.5C 194.845,300.825 184.845,305.492 173.5,307.5C 174.1,306.1 175.1,305.1 176.5,304.5C 181.797,303.683 186.797,302.016 191.5,299.5C 195.095,297.898 198.429,295.898 201.5,293.5 Z"/></g>
<g><path style="opacity:1" fill="#a69992" d="M 164.5,304.5 C 163.5,304.5 162.5,304.5 161.5,304.5C 161.5,303.5 161.5,302.5 161.5,301.5C 162.5,301.5 163.5,301.5 164.5,301.5C 164.5,302.5 164.5,303.5 164.5,304.5 Z"/></g>
<g><path style="opacity:1" fill="#a1821e" d="M 258.5,300.5 C 258.5,301.833 258.5,303.167 258.5,304.5C 257.5,307.5 255.5,309.5 252.5,310.5C 252.715,308.821 252.048,307.821 250.5,307.5C 252.196,305.475 253.863,303.475 255.5,301.5C 255.833,301.5 256.167,301.5 256.5,301.5C 256.369,302.239 256.536,302.906 257,303.5C 257.232,302.263 257.732,301.263 258.5,300.5 Z"/></g>
<g><path style="opacity:1" fill="#af8c25" d="M 250.5,307.5 C 252.048,307.821 252.715,308.821 252.5,310.5C 243.249,312.342 233.916,312.676 224.5,311.5C 224.5,310.167 224.5,308.833 224.5,307.5C 233.167,307.5 241.833,307.5 250.5,307.5 Z"/></g>
<g><path style="opacity:1" fill="#a1811f" d="M 73.5,305.5 C 74.4734,305.987 75.4734,306.487 76.5,307C 85.5,307.333 94.5,307.667 103.5,308C 104.925,309.714 104.592,311.047 102.5,312C 93.4536,312.807 84.4536,312.474 75.5,311C 73.9336,310.392 72.6002,309.558 71.5,308.5C 68.2986,304.797 68.9652,303.797 73.5,305.5 Z"/></g>
</svg>
